{
	"asset":{
		"version":"2.0",
		"generator":"Houdini GLTF 2.0 Exporter"
	},
	"accessors":[
		{
			"bufferView":0,
			"componentType":5123,
			"count":2436,
			"type":"SCALAR",
			"min":[0
			],
			"max":[2435
			]
		},
		{
			"bufferView":1,
			"componentType":5126,
			"count":2436,
			"type":"VEC3",
			"min":[-16,-2.4000001,-25
			],
			"max":[16,5.94999981,11
			]
		},
		{
			"bufferView":2,
			"componentType":5126,
			"count":2436,
			"type":"VEC3",
			"min":[-1,-1,-1
			],
			"max":[1,1,1
			]
		},
		{
			"bufferView":3,
			"componentType":5126,
			"count":2436,
			"type":"VEC2",
			"min":[-0.497718006,-0.5
			],
			"max":[1.51198494,1.51503098
			]
		},
		{
			"bufferView":4,
			"componentType":5125,
			"count":38166,
			"type":"SCALAR",
			"min":[0
			],
			"max":[38165
			]
		},
		{
			"bufferView":5,
			"componentType":5126,
			"count":38166,
			"type":"VEC3",
			"min":[-16.25,-2,-25.2000008
			],
			"max":[16.2000008,10.9913359,11.1999998
			]
		},
		{
			"bufferView":6,
			"componentType":5126,
			"count":38166,
			"type":"VEC3",
			"min":[-1,-1,-1
			],
			"max":[1,1,1
			]
		},
		{
			"bufferView":7,
			"componentType":5126,
			"count":38166,
			"type":"VEC2",
			"min":[0.00854699966,0.259836972
			],
			"max":[0.271256,0.631703973
			]
		},
		{
			"bufferView":8,
			"componentType":5125,
			"count":38166,
			"type":"SCALAR",
			"min":[0
			],
			"max":[38165
			]
		},
		{
			"bufferView":9,
			"componentType":5126,
			"count":38166,
			"type":"VEC3",
			"min":[-16.25,-2,-25.2000008
			],
			"max":[16.2000008,10.9913359,11.1999998
			]
		},
		{
			"bufferView":10,
			"componentType":5126,
			"count":38166,
			"type":"VEC2",
			"min":[0.00854699966,0.259836972
			],
			"max":[0.271256,0.631703973
			]
		},
		{
			"bufferView":11,
			"componentType":5126,
			"count":38166,
			"type":"VEC3",
			"min":[-1,-1,-1
			],
			"max":[1,1,1
			]
		},
		{
			"bufferView":12,
			"componentType":5123,
			"count":2436,
			"type":"SCALAR",
			"min":[0
			],
			"max":[2435
			]
		},
		{
			"bufferView":13,
			"componentType":5126,
			"count":2436,
			"type":"VEC3",
			"min":[-16,-2.4000001,-25
			],
			"max":[16,5.94999981,11
			]
		},
		{
			"bufferView":14,
			"componentType":5126,
			"count":2436,
			"type":"VEC2",
			"min":[-0.497718006,-0.5
			],
			"max":[1.51198494,1.51503098
			]
		},
		{
			"bufferView":15,
			"componentType":5126,
			"count":2436,
			"type":"VEC3",
			"min":[-1,-1,-1
			],
			"max":[1,1,1
			]
		}
	],
	"buffers":[
		{
			"uri":"prototype_data.bin",
			"byteLength":2913600,
			"name":"main_buffer"
		}
	],
	"bufferViews":[
		{
			"buffer":0,
			"byteLength":4872,
			"target":34963
		},
		{
			"buffer":0,
			"byteOffset":4872,
			"byteLength":29232,
			"target":34962
		},
		{
			"buffer":0,
			"byteOffset":34104,
			"byteLength":29232,
			"target":34962
		},
		{
			"buffer":0,
			"byteOffset":63336,
			"byteLength":19488,
			"target":34962
		},
		{
			"buffer":0,
			"byteOffset":82824,
			"byteLength":152664,
			"target":34963
		},
		{
			"buffer":0,
			"byteOffset":235488,
			"byteLength":457992,
			"target":34962
		},
		{
			"buffer":0,
			"byteOffset":693480,
			"byteLength":457992,
			"target":34962
		},
		{
			"buffer":0,
			"byteOffset":1151472,
			"byteLength":305328,
			"target":34962
		},
		{
			"buffer":0,
			"byteOffset":1456800,
			"byteLength":152664,
			"target":34963
		},
		{
			"buffer":0,
			"byteOffset":1609464,
			"byteLength":457992,
			"target":34962
		},
		{
			"buffer":0,
			"byteOffset":2067456,
			"byteLength":305328,
			"target":34962
		},
		{
			"buffer":0,
			"byteOffset":2372784,
			"byteLength":457992,
			"target":34962
		},
		{
			"buffer":0,
			"byteOffset":2830776,
			"byteLength":4872,
			"target":34963
		},
		{
			"buffer":0,
			"byteOffset":2835648,
			"byteLength":29232,
			"target":34962
		},
		{
			"buffer":0,
			"byteOffset":2864880,
			"byteLength":19488,
			"target":34962
		},
		{
			"buffer":0,
			"byteOffset":2884368,
			"byteLength":29232,
			"target":34962
		}
	],
	"nodes":[
		{
			"children":[1
			],
			"name":"Root"
		},
		{
			"children":[2,3
			],
			"name":"prototype_level"
		},
		{
			"name":"geo",
			"mesh":0
		},
		{
			"name":"StaticBody-colonly",
			"mesh":1
		}
	],
	"meshes":[
		{
			"primitives":[
				{
					"attributes":{
						"TEXCOORD_0":3,
						"NORMAL":2,
						"POSITION":1
					},
					"indices":0,
					"material":0
				},
				{
					"attributes":{
						"TEXCOORD_0":7,
						"NORMAL":6,
						"POSITION":5
					},
					"indices":4,
					"material":1
				}
			]
		},
		{
			"primitives":[
				{
					"attributes":{
						"NORMAL":11,
						"TEXCOORD_0":10,
						"POSITION":9
					},
					"indices":8
				},
				{
					"attributes":{
						"NORMAL":15,
						"TEXCOORD_0":14,
						"POSITION":13
					},
					"indices":12
				}
			]
		}
	],
	"materials":[
		{
			"name":"texture2",
			"pbrMetallicRoughness":{
				"metallicFactor":0,
				"baseColorTexture":{
					"index":0
				}
			}
		},
		{
			"name":"lowpoly-colors",
			"pbrMetallicRoughness":{
				"metallicFactor":0,
				"baseColorTexture":{
					"index":1
				}
			}
		}
	],
	"scenes":[
		{
			"nodes":[0
			]
		}
	],
	"textures":[
		{
			"source":0
		},
		{
			"source":1
		}
	],
	"images":[
		{
			"uri":"prototype_grid2.png",
			"mimeType":"image/png"
		},
		{
			"uri":"lowpoly_colors.png",
			"mimeType":"image/png"
		}
	],
	"scene":0
}
